<?xml version="1.0" encoding="utf-8"?>
<!-- Generator: Adobe Illustrator 25.0.0, SVG Export Plug-In . SVG Version: 6.00 Build 0)  -->
<svg version="1.1" id="Capa_1" xmlns="http://www.w3.org/2000/svg" xmlns:xlink="http://www.w3.org/1999/xlink" x="0px" y="0px"
	 viewBox="0 0 1920 1080" style="enable-background:new 0 0 1920 1080;" xml:space="preserve">
<style type="text/css">
	.st0{fill:#15162C;}
	.st1{fill:#9F9F9E;}
</style>
<rect class="st0" width="1920" height="1080"/>
<g>
	<path class="st1" d="M972.6,685c-71.52-3.09-133.74-39.63-170.06-112.52c-23-46.17-23.38-94.57-5.27-142.64
		c17.37-46.11,48.94-81.46,94.22-104.15c47.81-23.97,98.6-27.71,150.58-13.68c34.69,9.36,63.59,27.86,88.26,52.64
		c7.44,7.48,6.98,14.78-1.29,21.44c-13.52,10.89-26.53,22.34-40.71,32.5c-3.95,2.83-6.74,3.23-9.86-0.65
		c-12.72-15.81-30.07-25.57-48.76-33.38c-4.64-1.94-8.08-4.59-10.64-8.63c-4.71-7.45-11.97-12-20.13-15.22
		c-6.25-2.46-11.03-0.68-13.29,5.75c-1.07,3.05-2.12,6.12-2.91,9.24c-2.99,11.9-16.19,19.31-28.35,15.81
		c-17.39-5-25.21,0.2-25.84,17.79c-0.19,5.36-1.87,9.12-6.58,12.1c-11.56,7.31-20.36,17.64-30.64,26.36
		c-7.91,6.71-9.46,16.2-9.88,25.74c-0.14,3.25,0.02,6.44-1.77,9.35c-8.51,13.86-15.87,28.39-27.63,40.27
		c-11.08,11.18-10.79,20.09,1,30.41c4.56,4,7.63,8.37,8.83,14.17c1.68,8.12,5.94,14.88,12.06,20.81c4.72,4.57,8.82,9.72,13.16,14.64
		c9.17,10.38,20.25,12.47,30.94,3.91c12.97-10.39,28.87-15.34,43.14-23.26c12.8-7.1,31.15-0.11,40.72,13.79
		c9.81,14.26,10.38,14.4,27.35,7.39c17.99-7.43,34.42-16.99,46.89-31.8c4.51-5.36,8.16-6.55,14.16-1.09
		c12.17,11.09,25.38,21.14,37.76,32.03c9.88,8.69,9.84,14.88,0.28,23.79C1088.57,664.96,1041.21,684.73,972.6,685z"/>
	<g>
		<g>
			<path class="st1" d="M725.18,727.92c-2.64,0-4.93,0.51-6.86,1.54c-1.93,1.03-3.5,2.42-4.71,4.18c-1.21,1.77-2.11,3.82-2.69,6.16
				c-0.58,2.34-0.87,4.8-0.87,7.38c0,2.68,0.29,5.22,0.87,7.62c0.58,2.39,1.49,4.47,2.73,6.23c1.24,1.77,2.82,3.16,4.75,4.18
				c1.93,1.03,4.24,1.54,6.94,1.54c1.21,0,2.31-0.09,3.31-0.28c0.99-0.18,1.93-0.47,2.81-0.87c0.88-0.39,1.74-0.92,2.56-1.58
				c0.83-0.66,1.71-1.43,2.64-2.33c1.21-1.21,2.18-2.12,2.89-2.72c0.71-0.6,1.65-0.91,2.81-0.91c1.43,0,2.7,0.49,3.8,1.46
				c1.1,0.97,1.65,2.12,1.65,3.43c0,2.05-1.05,4.1-3.14,6.16c-1.76,1.79-4.31,3.39-7.64,4.81c-3.33,1.42-7.42,2.13-12.27,2.13
				c-4.96,0-9.16-0.79-12.6-2.37c-3.44-1.58-6.21-3.7-8.3-6.35c-2.09-2.66-3.61-5.7-4.55-9.12c-0.94-3.42-1.4-6.95-1.4-10.58
				c0-3.84,0.54-7.51,1.61-11.01c1.07-3.5,2.74-6.59,5-9.28c2.26-2.68,5.15-4.81,8.68-6.39c3.52-1.58,7.74-2.37,12.64-2.37
				c2.15,0,4.16,0.2,6.03,0.59c1.87,0.39,3.59,0.91,5.16,1.54c1.57,0.63,2.97,1.37,4.21,2.21s2.3,1.71,3.18,2.6
				c0.88,0.9,1.61,1.83,2.19,2.8c0.58,0.97,0.87,1.99,0.87,3.04c0,1.42-0.5,2.62-1.49,3.59c-0.99,0.98-2.29,1.46-3.88,1.46
				c-1.49,0-2.6-0.32-3.35-0.95c-0.74-0.63-1.58-1.45-2.52-2.45c-1.76-1.84-3.46-3.16-5.08-3.95
				C729.54,728.32,727.54,727.92,725.18,727.92z"/>
			<path class="st1" d="M797.48,754.21c0,3.32-0.52,6.32-1.57,9c-1.05,2.68-2.53,4.97-4.46,6.87c-1.93,1.89-4.24,3.37-6.94,4.42
				c-2.7,1.05-5.7,1.58-9.01,1.58c-3.42,0-6.49-0.51-9.21-1.54c-2.73-1.03-5.04-2.49-6.94-4.38c-1.9-1.89-3.36-4.18-4.38-6.87
				c-1.02-2.68-1.53-5.66-1.53-8.92c0-3.26,0.54-6.22,1.61-8.88c1.07-2.66,2.59-4.92,4.54-6.79c1.95-1.87,4.28-3.32,6.98-4.34
				c2.7-1.03,5.7-1.54,9.01-1.54c3.31,0,6.29,0.51,8.97,1.54c2.67,1.03,4.97,2.46,6.9,4.3c1.93,1.84,3.41,4.09,4.46,6.75
				C796.95,748.07,797.48,751,797.48,754.21z M785.99,754.53c0-3.89-0.91-6.95-2.73-9.16c-1.82-2.21-4.41-3.32-7.77-3.32
				c-3.2,0-5.72,1.09-7.56,3.28c-1.85,2.19-2.77,5.25-2.77,9.2s0.92,7,2.77,9.16c1.85,2.16,4.36,3.24,7.56,3.24
				c3.31,0,5.88-1.08,7.73-3.24C785.07,761.52,785.99,758.47,785.99,754.53z"/>
			<path class="st1" d="M828.05,732.82c1.27,0,2.26,0.18,2.97,0.55c0.71,0.37,1.25,0.82,1.61,1.34c0.36,0.53,0.58,1.08,0.66,1.66
				c0.08,0.58,0.12,1.11,0.12,1.58s-0.04,0.99-0.12,1.54c-0.08,0.55-0.29,1.07-0.62,1.54c-0.33,0.47-0.8,0.9-1.4,1.26
				c-0.61,0.37-1.43,0.63-2.48,0.79c-1.1,0.21-2.19,0.42-3.26,0.63c-1.07,0.21-2.24,0.61-3.51,1.18c-1.76,0.84-2.86,2.16-3.31,3.95
				c-0.44,1.79-0.66,3.95-0.66,6.47v15.39c0,1.63-0.44,2.82-1.32,3.55c-0.88,0.74-2.31,1.1-4.3,1.1c-3.75,0-5.62-1.55-5.62-4.66
				v-32.76c0-1.16,0.4-2.17,1.2-3.04c0.8-0.87,2.24-1.3,4.34-1.3c1.6,0,2.89,0.26,3.88,0.79c0.99,0.53,1.49,1.47,1.49,2.84v1.74
				c1.1-1.68,2.51-3.13,4.21-4.34C823.64,733.42,825.68,732.82,828.05,732.82z"/>
			<path class="st1" d="M863.16,732.82c2.97,0,5.5,0.51,7.56,1.54c2.07,1.03,3.7,2.7,4.92,5.01c1.6-2.31,3.51-3.99,5.74-5.01
				c2.23-1.03,4.83-1.54,7.81-1.54c2.86,0,5.25,0.43,7.15,1.3c1.9,0.87,3.54,2.12,4.92,3.75c1.43,1.79,2.28,3.78,2.56,5.96
				c0.27,2.19,0.41,4.25,0.41,6.2v20.92c0,1.53-0.47,2.63-1.4,3.31c-0.94,0.68-2.37,1.03-4.3,1.03c-1.65,0-3.02-0.33-4.09-0.99
				c-1.07-0.66-1.61-1.78-1.61-3.35v-20.68c0-2.31-0.25-4-0.74-5.05c-0.5-1.05-1.25-1.79-2.27-2.21c-1.02-0.42-2.25-0.63-3.68-0.63
				c-1.43,0-2.63,0.21-3.59,0.63c-0.96,0.42-1.74,0.95-2.31,1.58c-0.58,0.63-1.02,1.32-1.32,2.05c-0.3,0.74-0.54,1.42-0.7,2.05
				c-0.28,0.95-0.43,2.05-0.45,3.31c-0.03,1.26-0.04,2.32-0.04,3.16v15.79c0,1.53-0.47,2.63-1.4,3.31c-0.94,0.68-2.37,1.03-4.3,1.03
				c-1.65,0-3.02-0.33-4.09-0.99c-1.07-0.66-1.61-1.78-1.61-3.35v-20.68c0-2.31-0.25-4-0.74-5.05c-0.5-1.05-1.25-1.79-2.27-2.21
				c-1.02-0.42-2.25-0.63-3.68-0.63c-1.43,0-2.63,0.22-3.59,0.67c-0.96,0.45-1.74,1-2.31,1.66c-0.58,0.66-1.02,1.36-1.32,2.09
				c-0.3,0.74-0.54,1.42-0.7,2.05c-0.28,0.95-0.43,2.03-0.45,3.24c-0.03,1.21-0.04,2.24-0.04,3.08v15.55c0,1.63-0.45,2.8-1.36,3.51
				c-0.91,0.71-2.41,1.07-4.5,1.07c-1.71,0-3.06-0.34-4.05-1.03c-0.99-0.68-1.49-1.82-1.49-3.4v-32.6c0-1.42,0.43-2.58,1.28-3.47
				c0.85-0.89,2.33-1.34,4.42-1.34c1.43,0,2.7,0.3,3.8,0.91c1.1,0.61,1.65,1.83,1.65,3.67v0.95c1.05-1.58,2.55-3,4.5-4.26
				C857.39,733.45,859.97,732.82,863.16,732.82z"/>
			<path class="st1" d="M951.9,770.95c0,1.53-0.4,2.63-1.2,3.31c-0.8,0.68-2.16,1.03-4.09,1.03c-1.65,0-2.96-0.33-3.93-0.99
				c-0.96-0.66-1.45-1.78-1.45-3.35v-1.42c-0.61,0.74-1.28,1.47-2.02,2.21c-0.74,0.74-1.65,1.4-2.73,1.97
				c-1.07,0.58-2.33,1.05-3.76,1.42c-1.43,0.37-3.09,0.55-4.96,0.55c-4.35,0-7.78-1.09-10.29-3.28c-2.51-2.18-3.76-5.09-3.76-8.72
				c0-2.1,0.37-3.89,1.12-5.37c0.74-1.47,1.76-2.71,3.06-3.71c1.29-1,2.81-1.79,4.54-2.37c1.73-0.58,3.57-1.03,5.49-1.34
				c2.09-0.37,4.2-0.66,6.32-0.87c2.12-0.21,4.42-0.39,6.9-0.55v-1.5c0-0.79-0.11-1.57-0.33-2.33c-0.22-0.76-0.59-1.46-1.11-2.09
				c-0.52-0.63-1.25-1.13-2.19-1.5c-0.94-0.37-2.09-0.55-3.47-0.55c-0.88,0-1.69,0.05-2.44,0.16c-0.74,0.11-1.46,0.28-2.15,0.51
				c-0.69,0.24-1.4,0.57-2.15,0.99c-0.74,0.42-1.58,0.92-2.52,1.5c-0.72,0.47-1.39,0.87-2.02,1.18c-0.63,0.31-1.42,0.47-2.35,0.47
				c-1.27,0-2.4-0.46-3.39-1.38s-1.49-2.04-1.49-3.36c0-0.89,0.38-1.85,1.16-2.88c0.77-1.03,1.94-1.97,3.51-2.84
				c1.57-0.87,3.5-1.59,5.78-2.17c2.28-0.58,4.97-0.87,8.06-0.87c6.33,0,10.89,1.18,13.68,3.55c2.78,2.37,4.17,6.05,4.17,11.05
				V770.95z M941.16,756.1c-2.09,0.21-4.09,0.45-5.99,0.71c-1.9,0.26-3.32,0.5-4.26,0.71c-2.64,0.53-4.37,1.28-5.16,2.25
				c-0.8,0.97-1.2,1.96-1.2,2.96c0,1.37,0.44,2.44,1.32,3.2c0.88,0.76,2.4,1.15,4.54,1.15c3.41,0,6.06-0.75,7.93-2.25
				c1.87-1.5,2.81-3.43,2.81-5.8V756.1z"/>
			<path class="st1" d="M983.05,732.82c3.03,0,5.66,0.39,7.89,1.18c2.23,0.79,4.09,1.74,5.58,2.84c1.49,1.1,2.6,2.29,3.35,3.55
				c0.74,1.26,1.11,2.37,1.11,3.32c0,1.37-0.51,2.5-1.53,3.39c-1.02,0.9-2.25,1.34-3.68,1.34c-1.05,0-1.89-0.28-2.52-0.83
				c-0.63-0.55-1.36-1.2-2.19-1.94c-1.27-1.1-2.48-1.99-3.64-2.64c-1.16-0.66-2.7-0.99-4.63-0.99c-2.26,0-4.05,0.47-5.37,1.42
				s-2.31,2.09-2.98,3.43c-0.66,1.34-1.09,2.75-1.28,4.22c-0.19,1.47-0.29,2.71-0.29,3.71c0,1.1,0.12,2.37,0.37,3.79
				c0.25,1.42,0.74,2.75,1.49,3.99c0.74,1.24,1.79,2.28,3.14,3.12c1.35,0.84,3.1,1.26,5.25,1.26c2.04,0,3.64-0.32,4.79-0.95
				c1.16-0.63,2.42-1.63,3.8-3c0.61-0.63,1.2-1.17,1.78-1.62c0.58-0.45,1.34-0.67,2.27-0.67c0.66,0,1.31,0.13,1.94,0.39
				c0.63,0.26,1.18,0.62,1.65,1.07c0.47,0.45,0.85,0.96,1.16,1.54c0.3,0.58,0.45,1.18,0.45,1.82c0,1.05-0.43,2.2-1.28,3.43
				c-0.85,1.24-2.08,2.38-3.68,3.43c-1.6,1.05-3.54,1.93-5.82,2.64c-2.29,0.71-4.89,1.07-7.81,1.07c-3.86,0-7.13-0.59-9.83-1.78
				c-2.7-1.18-4.89-2.75-6.57-4.7c-1.68-1.95-2.89-4.18-3.63-6.71c-0.74-2.53-1.12-5.13-1.12-7.82c0-3.52,0.52-6.68,1.57-9.47
				c1.05-2.79,2.53-5.13,4.46-7.02c1.93-1.9,4.23-3.34,6.9-4.34C976.84,733.32,979.8,732.82,983.05,732.82z"/>
			<path class="st1" d="M1045.19,770.95c0,1.53-0.4,2.63-1.2,3.31c-0.8,0.68-2.16,1.03-4.09,1.03c-1.65,0-2.96-0.33-3.92-0.99
				c-0.96-0.66-1.45-1.78-1.45-3.35v-1.42c-0.61,0.74-1.28,1.47-2.03,2.21c-0.74,0.74-1.65,1.4-2.73,1.97
				c-1.07,0.58-2.33,1.05-3.76,1.42c-1.43,0.37-3.08,0.55-4.96,0.55c-4.35,0-7.78-1.09-10.29-3.28s-3.76-5.09-3.76-8.72
				c0-2.1,0.37-3.89,1.12-5.37c0.74-1.47,1.76-2.71,3.06-3.71c1.29-1,2.81-1.79,4.54-2.37c1.74-0.58,3.57-1.03,5.5-1.34
				c2.09-0.37,4.2-0.66,6.32-0.87c2.12-0.21,4.42-0.39,6.9-0.55v-1.5c0-0.79-0.11-1.57-0.33-2.33c-0.22-0.76-0.59-1.46-1.12-2.09
				c-0.52-0.63-1.25-1.13-2.19-1.5c-0.94-0.37-2.09-0.55-3.47-0.55c-0.88,0-1.69,0.05-2.44,0.16c-0.74,0.11-1.46,0.28-2.15,0.51
				c-0.69,0.24-1.4,0.57-2.15,0.99c-0.74,0.42-1.58,0.92-2.52,1.5c-0.72,0.47-1.39,0.87-2.03,1.18c-0.63,0.31-1.42,0.47-2.35,0.47
				c-1.27,0-2.4-0.46-3.39-1.38s-1.49-2.04-1.49-3.36c0-0.89,0.39-1.85,1.16-2.88c0.77-1.03,1.94-1.97,3.51-2.84
				c1.57-0.87,3.5-1.59,5.78-2.17c2.29-0.58,4.97-0.87,8.06-0.87c6.34,0,10.89,1.18,13.67,3.55c2.78,2.37,4.17,6.05,4.17,11.05
				V770.95z M1034.45,756.1c-2.09,0.21-4.09,0.45-5.99,0.71c-1.9,0.26-3.32,0.5-4.26,0.71c-2.64,0.53-4.37,1.28-5.16,2.25
				c-0.8,0.97-1.2,1.96-1.2,2.96c0,1.37,0.44,2.44,1.32,3.2c0.88,0.76,2.4,1.15,4.54,1.15c3.42,0,6.06-0.75,7.93-2.25
				c1.87-1.5,2.81-3.43,2.81-5.8V756.1z"/>
			<path class="st1" d="M1077.99,732.82c1.27,0,2.26,0.18,2.97,0.55c0.71,0.37,1.25,0.82,1.61,1.34c0.36,0.53,0.58,1.08,0.66,1.66
				c0.08,0.58,0.12,1.11,0.12,1.58s-0.04,0.99-0.12,1.54c-0.08,0.55-0.29,1.07-0.62,1.54c-0.33,0.47-0.8,0.9-1.4,1.26
				s-1.43,0.63-2.48,0.79c-1.1,0.21-2.19,0.42-3.26,0.63c-1.07,0.21-2.24,0.61-3.51,1.18c-1.76,0.84-2.87,2.16-3.31,3.95
				c-0.44,1.79-0.66,3.95-0.66,6.47v15.39c0,1.63-0.44,2.82-1.32,3.55s-2.31,1.1-4.3,1.1c-3.75,0-5.62-1.55-5.62-4.66v-32.76
				c0-1.16,0.4-2.17,1.2-3.04c0.8-0.87,2.24-1.3,4.34-1.3c1.6,0,2.89,0.26,3.88,0.79c0.99,0.53,1.49,1.47,1.49,2.84v1.74
				c1.1-1.68,2.5-3.13,4.21-4.34C1073.58,733.42,1075.62,732.82,1077.99,732.82z"/>
			<path class="st1" d="M1107.16,732.82c6,0,10.78,1.78,14.33,5.33c3.55,3.55,5.33,8.65,5.33,15.27c0,1.53-0.48,2.58-1.45,3.16
				s-2.33,0.87-4.09,0.87h-23.96c0.55,6.47,4.21,9.71,10.99,9.71c1.76,0,3.25-0.28,4.46-0.83s2.26-1.04,3.14-1.46
				c0.83-0.42,1.6-0.84,2.31-1.26c0.71-0.42,1.57-0.63,2.56-0.63c1.1,0,2.12,0.53,3.06,1.58c0.94,1.05,1.4,2.24,1.4,3.55
				c0,0.95-0.29,1.78-0.87,2.49c-0.58,0.71-1.53,1.46-2.85,2.25c-1.76,1.05-3.87,1.85-6.32,2.41c-2.45,0.55-4.86,0.83-7.23,0.83
				c-3.42,0-6.51-0.42-9.3-1.26c-2.78-0.84-5.14-2.13-7.06-3.87c-1.93-1.74-3.42-3.93-4.46-6.59c-1.05-2.66-1.57-5.8-1.57-9.43
				c0-2.79,0.41-5.51,1.24-8.17c0.83-2.66,2.12-5.01,3.88-7.07c1.76-2.05,4.01-3.71,6.74-4.97
				C1100.18,733.45,1103.41,732.82,1107.16,732.82z M1115.34,749.31c0-0.95-0.16-1.89-0.5-2.84c-0.33-0.95-0.84-1.82-1.53-2.61
				c-0.69-0.79-1.56-1.42-2.6-1.89c-1.05-0.47-2.31-0.71-3.8-0.71c-2.37,0-4.42,0.68-6.16,2.05c-1.74,1.37-2.74,3.37-3.02,6H1115.34
				z"/>
			<path class="st1" d="M1159.38,732.82c2.86,0,5.25,0.43,7.15,1.3c1.9,0.87,3.54,2.12,4.92,3.75c1.43,1.79,2.29,3.78,2.56,5.96
				c0.28,2.19,0.41,4.25,0.41,6.2v20.92c0,1.53-0.47,2.63-1.4,3.31s-2.37,1.03-4.3,1.03c-1.65,0-3.02-0.33-4.09-0.99
				c-1.07-0.66-1.61-1.78-1.61-3.35v-20.68c0-2.31-0.25-4-0.74-5.05c-0.5-1.05-1.25-1.79-2.27-2.21c-1.02-0.42-2.25-0.63-3.68-0.63
				c-1.49,0-2.76,0.22-3.8,0.67c-1.05,0.45-1.93,1-2.64,1.66c-0.72,0.66-1.27,1.36-1.65,2.09c-0.39,0.74-0.66,1.42-0.83,2.05
				c-0.28,0.95-0.43,2.03-0.45,3.24c-0.03,1.21-0.04,2.24-0.04,3.08v15.55c0,1.63-0.45,2.8-1.36,3.51c-0.91,0.71-2.41,1.07-4.5,1.07
				c-1.71,0-3.06-0.34-4.05-1.03c-0.99-0.68-1.49-1.82-1.49-3.4v-32.6c0-1.42,0.43-2.58,1.28-3.47c0.85-0.89,2.33-1.34,4.42-1.34
				c1.43,0,2.7,0.3,3.8,0.91c1.1,0.61,1.65,1.83,1.65,3.67v0.95c1.16-1.63,2.82-3.06,5-4.3
				C1153.83,733.44,1156.4,732.82,1159.38,732.82z"/>
			<path class="st1" d="M1222.09,770.95c0,1.53-0.4,2.63-1.2,3.31c-0.8,0.68-2.16,1.03-4.09,1.03c-1.65,0-2.96-0.33-3.92-0.99
				c-0.96-0.66-1.45-1.78-1.45-3.35v-1.42c-0.61,0.74-1.28,1.47-2.03,2.21c-0.74,0.74-1.65,1.4-2.73,1.97
				c-1.07,0.58-2.33,1.05-3.76,1.42c-1.43,0.37-3.08,0.55-4.96,0.55c-4.35,0-7.78-1.09-10.29-3.28c-2.51-2.18-3.76-5.09-3.76-8.72
				c0-2.1,0.37-3.89,1.11-5.37c0.74-1.47,1.76-2.71,3.06-3.71c1.29-1,2.81-1.79,4.54-2.37c1.74-0.58,3.57-1.03,5.5-1.34
				c2.09-0.37,4.2-0.66,6.32-0.87c2.12-0.21,4.42-0.39,6.9-0.55v-1.5c0-0.79-0.11-1.57-0.33-2.33c-0.22-0.76-0.59-1.46-1.12-2.09
				c-0.52-0.63-1.25-1.13-2.19-1.5c-0.94-0.37-2.09-0.55-3.47-0.55c-0.88,0-1.69,0.05-2.44,0.16c-0.74,0.11-1.46,0.28-2.15,0.51
				c-0.69,0.24-1.4,0.57-2.15,0.99c-0.74,0.42-1.58,0.92-2.52,1.5c-0.72,0.47-1.39,0.87-2.03,1.18c-0.63,0.31-1.42,0.47-2.35,0.47
				c-1.27,0-2.4-0.46-3.39-1.38s-1.49-2.04-1.49-3.36c0-0.89,0.38-1.85,1.16-2.88c0.77-1.03,1.94-1.97,3.51-2.84
				c1.57-0.87,3.5-1.59,5.78-2.17c2.29-0.58,4.97-0.87,8.06-0.87c6.33,0,10.89,1.18,13.67,3.55c2.78,2.37,4.17,6.05,4.17,11.05
				V770.95z M1211.35,756.1c-2.09,0.21-4.09,0.45-5.99,0.71c-1.9,0.26-3.32,0.5-4.26,0.71c-2.64,0.53-4.37,1.28-5.16,2.25
				c-0.8,0.97-1.2,1.96-1.2,2.96c0,1.37,0.44,2.44,1.32,3.2c0.88,0.76,2.4,1.15,4.54,1.15c3.42,0,6.06-0.75,7.93-2.25
				c1.87-1.5,2.81-3.43,2.81-5.8V756.1z"/>
		</g>
	</g>
</g>
</svg>
