<?xml version="1.0" encoding="utf-8"?>
<!-- Generator: Adobe Illustrator 27.0.0, SVG Export Plug-In . SVG Version: 6.00 Build 0)  -->
<svg version="1.1" id="Capa_1" width="100" xmlns="http://www.w3.org/2000/svg" xmlns:xlink="http://www.w3.org/1999/xlink" x="0px"
	y="0px" viewBox="0 0 266.4 68.7" style="enable-background:new 0 0 266.4 68.7;" xml:space="preserve">
	<style type="text/css">
		.st0 {
			fill: #FFFFFF;
		}

		.st1 {
			fill-rule: evenodd;
			clip-rule: evenodd;
			fill: #FFFFFF;
		}
	</style>
	<path class="st0" d="M65.9,26.2c1.5,0,2.8,0.2,4,0.7c1.2,0.5,2.3,1.2,3.1,2.1c0.9,0.9,1.6,1.9,2.1,3.1c0.5,1.2,0.7,2.6,0.7,4
	c0,1.4-0.2,2.8-0.7,4c-0.5,1.2-1.2,2.3-2.1,3.1c-0.9,0.9-1.9,1.6-3.1,2.1c-1.2,0.5-2.5,0.7-4,0.7c-1.5,0-2.8-0.2-4-0.7
	c-1.2-0.5-2.3-1.2-3.1-2.1c-0.9-0.9-1.6-1.9-2.1-3.1c-0.5-1.2-0.7-2.6-0.7-4c0-1.4,0.2-2.8,0.7-4c0.5-1.2,1.2-2.3,2.1-3.1
	c0.9-0.9,1.9-1.6,3.1-2.1C63.1,26.4,64.4,26.2,65.9,26.2 M65.9,41.5c0.6,0,1.3-0.1,1.9-0.4c0.6-0.2,1.1-0.6,1.6-1
	c0.5-0.5,0.8-1,1.1-1.7c0.3-0.7,0.4-1.4,0.4-2.3c0-0.8-0.1-1.6-0.4-2.3c-0.3-0.7-0.6-1.2-1.1-1.7c-0.5-0.5-1-0.8-1.6-1
	c-0.6-0.2-1.2-0.4-1.9-0.4c-0.7,0-1.3,0.1-1.9,0.4c-0.6,0.2-1.1,0.6-1.6,1c-0.5,0.5-0.8,1-1.1,1.7c-0.3,0.7-0.4,1.4-0.4,2.3
	c0,0.8,0.1,1.6,0.4,2.3c0.3,0.7,0.6,1.2,1.1,1.7c0.5,0.5,1,0.8,1.6,1C64.6,41.3,65.2,41.5,65.9,41.5" />
	<path class="st0" d="M78.6,26.8h4.7v2.6h0.3c0.2-0.5,0.5-0.9,0.9-1.3c0.4-0.4,0.8-0.7,1.3-1c0.5-0.3,1-0.5,1.5-0.7
	c0.5-0.2,1.1-0.3,1.6-0.3c0.7,0,1.2,0.1,1.7,0.2c0.5,0.1,0.9,0.3,1.2,0.5l-1.3,4.5c-0.3-0.2-0.6-0.3-1-0.4c-0.4-0.1-0.8-0.1-1.4-0.1
	c-0.7,0-1.3,0.1-1.9,0.4c-0.6,0.3-1,0.6-1.4,1.1c-0.4,0.5-0.7,1.1-0.9,1.7c-0.2,0.7-0.3,1.4-0.3,2.1v9.2h-5V26.8z" />
	<path class="st0" d="M94.2,26.8h4.7v2.4h0.3c0.6-0.9,1.4-1.7,2.4-2.2c1-0.6,2.1-0.8,3.3-0.8c1.4,0,2.6,0.3,3.6,1
	c1,0.7,1.7,1.5,2.1,2.4c0.6-0.9,1.4-1.7,2.5-2.4c1.1-0.7,2.4-1,3.9-1c1.1,0,2.1,0.2,3,0.6c0.8,0.4,1.5,0.9,2.1,1.5
	c0.5,0.7,1,1.5,1.2,2.4c0.3,0.9,0.4,1.9,0.4,3v11.8h-5V34.6c0-2.5-1-3.8-3.1-3.8c-0.7,0-1.2,0.1-1.8,0.4c-0.5,0.3-0.9,0.7-1.3,1.2
	c-0.3,0.5-0.6,1.1-0.8,1.8c-0.2,0.7-0.3,1.4-0.3,2.2v9.1h-5V34.6c0-2.5-1.1-3.8-3.3-3.8c-0.6,0-1.2,0.1-1.7,0.4
	c-0.5,0.3-0.9,0.7-1.2,1.2c-0.3,0.5-0.6,1.1-0.8,1.8c-0.2,0.7-0.3,1.4-0.3,2.2v9.1h-5V26.8z" />
	<path class="st0" d="M139.1,43.5h-0.3c-0.6,0.7-1.3,1.3-2.1,1.8c-0.8,0.5-1.9,0.8-3.2,0.8c-1,0-1.9-0.2-2.7-0.5
	c-0.9-0.3-1.6-0.8-2.2-1.3c-0.6-0.6-1.1-1.2-1.5-2c-0.4-0.8-0.5-1.7-0.5-2.6c0-1,0.2-1.8,0.6-2.6c0.4-0.8,0.9-1.4,1.6-2
	c0.7-0.6,1.5-1,2.4-1.3c0.9-0.3,1.9-0.4,3-0.4c1.2,0,2.2,0.1,3,0.3c0.8,0.2,1.4,0.4,1.9,0.6v-0.6c0-1-0.4-1.8-1.2-2.5
	c-0.8-0.6-1.8-1-2.9-1c-1.7,0-3.2,0.7-4.4,2.2l-3.6-2.5c2-2.5,4.7-3.7,8.1-3.7c2.9,0,5.1,0.7,6.6,2c1.5,1.4,2.3,3.4,2.3,6v11.2h-4.9
	V43.5z M139.1,37.9c-0.6-0.3-1.2-0.5-1.8-0.7c-0.6-0.2-1.3-0.2-2-0.2c-1.2,0-2.1,0.3-2.8,0.8c-0.6,0.5-1,1.2-1,1.9
	c0,0.8,0.3,1.4,0.9,1.8c0.6,0.5,1.3,0.7,2.2,0.7c0.7,0,1.3-0.1,1.8-0.4c0.6-0.2,1-0.6,1.4-1c0.4-0.4,0.7-0.9,0.9-1.4
	C139,39,139.1,38.4,139.1,37.9" />
	<path class="st0"
		d="M165.6,40.7c-0.8,1.6-2,2.9-3.4,3.9c-1.5,1-3.3,1.5-5.5,1.5c-1.5,0-2.8-0.2-4-0.7c-1.2-0.5-2.3-1.2-3.1-2.1
	c-0.9-0.9-1.6-1.9-2.1-3.1c-0.5-1.2-0.7-2.5-0.7-4c0-1.4,0.2-2.8,0.7-4c0.5-1.2,1.2-2.3,2.1-3.1c0.9-0.9,1.9-1.6,3.1-2.1
	c1.2-0.5,2.5-0.7,4-0.7c2.2,0,4,0.5,5.5,1.5c1.5,1,2.6,2.3,3.2,3.9l-4.6,1.9c-0.4-0.9-1-1.5-1.7-2c-0.7-0.4-1.5-0.7-2.5-0.7
	c-0.7,0-1.3,0.1-1.9,0.4c-0.6,0.3-1.1,0.6-1.5,1.1c-0.4,0.5-0.8,1-1.1,1.7c-0.3,0.7-0.4,1.4-0.4,2.2c0,0.8,0.1,1.6,0.4,2.2
	c0.3,0.7,0.6,1.2,1.1,1.7c0.4,0.5,1,0.8,1.5,1.1c0.6,0.3,1.2,0.4,1.9,0.4c1,0,1.9-0.2,2.7-0.7c0.7-0.5,1.3-1.1,1.7-2L165.6,40.7z" />
	<path class="st0" d="M180,43.5h-0.3c-0.6,0.7-1.3,1.3-2.1,1.8c-0.8,0.5-1.9,0.8-3.2,0.8c-1,0-1.9-0.2-2.7-0.5
	c-0.9-0.3-1.6-0.8-2.2-1.3c-0.6-0.6-1.1-1.2-1.5-2c-0.4-0.8-0.5-1.7-0.5-2.6c0-1,0.2-1.8,0.6-2.6c0.4-0.8,0.9-1.4,1.6-2
	c0.7-0.6,1.5-1,2.4-1.3c0.9-0.3,1.9-0.4,3-0.4c1.2,0,2.2,0.1,3,0.3c0.8,0.2,1.4,0.4,1.9,0.6v-0.6c0-1-0.4-1.8-1.2-2.5
	c-0.8-0.6-1.8-1-2.9-1c-1.7,0-3.2,0.7-4.4,2.2l-3.6-2.5c2-2.5,4.7-3.7,8.1-3.7c2.9,0,5.1,0.7,6.6,2c1.5,1.4,2.3,3.4,2.3,6v11.2H180
	V43.5z M180,37.9c-0.6-0.3-1.2-0.5-1.8-0.7c-0.6-0.2-1.3-0.2-2-0.2c-1.2,0-2.1,0.3-2.8,0.8c-0.6,0.5-1,1.2-1,1.9
	c0,0.8,0.3,1.4,0.9,1.8c0.6,0.5,1.3,0.7,2.2,0.7c0.7,0,1.3-0.1,1.8-0.4c0.6-0.2,1-0.6,1.4-1c0.4-0.4,0.7-0.9,0.9-1.4
	C179.9,39,180,38.4,180,37.9" />
	<path class="st0" d="M188.9,26.8h4.7v2.6h0.3c0.2-0.5,0.5-0.9,0.9-1.3c0.4-0.4,0.8-0.7,1.3-1c0.5-0.3,1-0.5,1.5-0.7
	c0.5-0.2,1.1-0.3,1.6-0.3c0.7,0,1.2,0.1,1.7,0.2c0.5,0.1,0.9,0.3,1.2,0.5l-1.3,4.5c-0.3-0.2-0.6-0.3-1-0.4c-0.4-0.1-0.8-0.1-1.4-0.1
	c-0.7,0-1.3,0.1-1.9,0.4c-0.6,0.3-1,0.6-1.4,1.1c-0.4,0.5-0.7,1.1-0.9,1.7c-0.2,0.7-0.3,1.4-0.3,2.1v9.2h-5V26.8z" />
	<path class="st0"
		d="M221,41c-0.9,1.5-2,2.8-3.5,3.7c-1.5,0.9-3.3,1.4-5.4,1.4c-1.4,0-2.7-0.2-4-0.7c-1.2-0.5-2.3-1.2-3.2-2.1
	c-0.9-0.9-1.6-1.9-2.1-3.1c-0.5-1.2-0.7-2.5-0.7-4c0-1.3,0.2-2.6,0.7-3.8c0.5-1.2,1.2-2.3,2-3.2c0.9-0.9,1.9-1.6,3.1-2.2
	c1.2-0.5,2.5-0.8,3.9-0.8c1.5,0,2.8,0.2,4,0.7c1.2,0.5,2.2,1.2,2.9,2.1c0.8,0.9,1.4,1.9,1.8,3.1c0.4,1.2,0.6,2.5,0.6,3.9v0.5
	c0,0.2,0,0.3,0,0.4c0,0.1,0,0.3,0,0.4h-14.1c0.1,0.8,0.3,1.4,0.6,2c0.3,0.5,0.7,1,1.2,1.4c0.5,0.4,1,0.6,1.5,0.8
	c0.6,0.2,1.1,0.2,1.7,0.2c1.1,0,2.1-0.3,2.8-0.8c0.8-0.5,1.3-1.2,1.8-2L221,41z M216.5,33.7c0-0.3-0.1-0.7-0.3-1.1
	c-0.2-0.4-0.5-0.8-0.8-1.1c-0.4-0.4-0.8-0.6-1.4-0.9c-0.5-0.2-1.2-0.3-2-0.3c-1.1,0-2,0.3-2.8,0.9c-0.8,0.6-1.4,1.5-1.7,2.6H216.5z" />
	<path class="st0" d="M229.2,29.2h0.3c0.6-0.9,1.4-1.7,2.4-2.2c1-0.5,2.1-0.8,3.4-0.8c1.2,0,2.2,0.2,3.1,0.6c0.9,0.4,1.6,0.9,2.2,1.6
	c0.6,0.7,1,1.5,1.3,2.5c0.3,1,0.4,2.1,0.4,3.3v11.3h-5V34.8c0-1.3-0.3-2.3-0.9-3c-0.6-0.6-1.5-1-2.6-1c-0.7,0-1.3,0.1-1.8,0.4
	c-0.5,0.3-1,0.7-1.3,1.2c-0.4,0.5-0.6,1.1-0.8,1.8c-0.2,0.7-0.3,1.4-0.3,2.2v9.2h-5V26.8h4.7V29.2z" />
	<path class="st0" d="M257.8,43.5h-0.3c-0.6,0.7-1.3,1.3-2.1,1.8c-0.8,0.5-1.9,0.8-3.2,0.8c-1,0-1.9-0.2-2.7-0.5
	c-0.9-0.3-1.6-0.8-2.2-1.3c-0.6-0.6-1.1-1.2-1.5-2c-0.4-0.8-0.5-1.7-0.5-2.6c0-1,0.2-1.8,0.6-2.6c0.4-0.8,0.9-1.4,1.6-2
	c0.7-0.6,1.5-1,2.4-1.3c0.9-0.3,1.9-0.4,3-0.4c1.2,0,2.2,0.1,3,0.3c0.8,0.2,1.4,0.4,1.9,0.6v-0.6c0-1-0.4-1.8-1.2-2.5
	c-0.8-0.6-1.8-1-2.9-1c-1.7,0-3.2,0.7-4.4,2.2l-3.6-2.5c2-2.5,4.7-3.7,8.1-3.7c2.9,0,5.1,0.7,6.6,2c1.5,1.4,2.3,3.4,2.3,6v11.2h-4.9
	V43.5z M257.8,37.9c-0.6-0.3-1.2-0.5-1.8-0.7c-0.6-0.2-1.3-0.2-2-0.2c-1.2,0-2.1,0.3-2.8,0.8c-0.6,0.5-1,1.2-1,1.9
	c0,0.8,0.3,1.4,0.9,1.8c0.6,0.5,1.3,0.7,2.2,0.7c0.7,0,1.3-0.1,1.8-0.4c0.6-0.2,1-0.6,1.4-1c0.4-0.4,0.7-0.9,0.9-1.4
	C257.7,39,257.8,38.4,257.8,37.9" />
	<path class="st1" d="M49.1,47.7c-2.8,4-7.7,6.7-11.8,7.4c-1.1-4.9-5.9-5.7-7.8-4.3c-1.5,1.1-3.5,1.7-3.7,1.8c-0.5,0.2-2,1.4-2.5,1.9
	c-0.6,0.4-3.3,2.2-5.6-1.6c-0.5-0.8-2-2-2.7-3.3c-0.8-1.4-0.7-2.8-1.2-3.3c-0.8-0.9-3.8-2.7-1.4-5.3c1.6-1.9,2.3-2.7,2.7-3.6
	c0.4-0.9,2.1-3.4,2.3-4.1c0.3-1.5-0.6-3.1,1.7-5.4c2.3-2.3,3.6-3.3,4.2-3.8c0.6-0.5,1.6-1.3,1.6-1.3s-0.5-3.3,1.3-4.4
	c0.9-0.7,3.6,0.6,3.6,0.6s1.6-0.1,3.4-1.9c0.2-0.9,0.4-3.2,1.3-3.5c1.5-0.5,4,1,5.4,3.6c0.1,0.1,5.7,1.7,9.3,6.7
	c0.7-0.6,5.5-4.5,7.5-6.2c0.3-0.3,1.3-1.7,0.1-3C52.8,10.5,45.4,4.5,33.6,4.5C14.7,4.5,2.3,20,2.3,35.9c0,17.7,14.3,31.3,31.3,31.3
	c13,0,20.3-7.2,23.2-10c0.2-0.2,1.1-1.5-0.1-2.8C55.3,53.1,49.6,48.1,49.1,47.7" />
</svg>