<?xml version="1.0" encoding="utf-8"?>
<!-- Generator: Adobe Illustrator 27.0.0, SVG Export Plug-In . SVG Version: 6.00 Build 0)  -->
<svg version="1.1" id="Capa_1" width="100" xmlns="http://www.w3.org/2000/svg" xmlns:xlink="http://www.w3.org/1999/xlink" x="0px"
	y="0px" viewBox="0 0 266.4 97.6" style="enable-background:new 0 0 266.4 97.6;" xml:space="preserve">
	<style type="text/css">
		.st0 {
			fill: #FFFFFF;
		}

		.st1 {
			fill-rule: evenodd;
			clip-rule: evenodd;
			fill: #FFFFFF;
		}
	</style>
	<g>
		<g>
			<path class="st0" d="M237.4,91.9c0.1,0.1,0,0.2-0.1,0.3c-0.7,0.5-1.4,0.7-2.3,0.7c-1.1,0-2.1-0.4-2.9-1.2
			c-0.8-0.8-1.2-1.8-1.2-2.9c0-1.2,0.4-2.1,1.2-2.9c0.8-0.8,1.7-1.2,2.9-1.2c0.8,0,1.6,0.2,2.2,0.7c0.1,0.1,0.2,0.2,0.1,0.3L237,86
			c-0.1,0.1-0.2,0.1-0.3,0c-0.5-0.3-1.1-0.5-1.7-0.5c-0.9,0-1.6,0.3-2.2,0.9s-0.9,1.4-0.9,2.3c0,0.9,0.3,1.6,0.9,2.3
			c0.6,0.6,1.3,0.9,2.2,0.9c0.6,0,1.2-0.2,1.7-0.5c0.1,0,0.2,0,0.3,0L237.4,91.9z" />
			<path class="st0" d="M238.4,88.7c0-1.2,0.4-2.1,1.2-2.9c0.8-0.8,1.7-1.2,2.9-1.2s2.1,0.4,2.9,1.2c0.8,0.8,1.2,1.8,1.2,2.9
			c0,1.2-0.4,2.1-1.2,2.9c-0.8,0.8-1.7,1.2-2.9,1.2s-2.1-0.4-2.9-1.2C238.8,90.8,238.4,89.9,238.4,88.7z M239.4,88.7
			c0,0.9,0.3,1.6,0.9,2.3c0.6,0.6,1.3,0.9,2.2,0.9s1.6-0.3,2.2-0.9c0.6-0.6,0.9-1.4,0.9-2.3c0-0.9-0.3-1.6-0.9-2.3s-1.3-0.9-2.2-0.9
			s-1.6,0.3-2.2,0.9S239.4,87.8,239.4,88.7z" />
			<path class="st0" d="M249,84.7c0.1,0,0.2,0.1,0.2,0.2v1.6c0.2-0.5,0.5-1,0.9-1.4c0.4-0.4,0.9-0.6,1.5-0.6c0.4,0,0.7,0.1,1,0.2
			c0.1,0,0.1,0.1,0.1,0.2l-0.2,0.6c0,0.1-0.1,0.1-0.2,0.1c-0.2-0.1-0.5-0.1-0.8-0.1c-0.6,0-1.2,0.3-1.6,1c-0.4,0.7-0.7,1.4-0.7,2.3
			v3.7c0,0.1-0.1,0.2-0.2,0.2h-0.6c-0.1,0-0.2-0.1-0.2-0.2v-7.6c0-0.1,0.1-0.2,0.2-0.2H249z" />
			<path class="st0" d="M254.8,84.7c0.1,0,0.2,0.1,0.2,0.2v1.6c0.7-1.3,1.8-1.9,3.2-1.9c1.1,0,2,0.4,2.8,1.2c0.7,0.8,1.1,1.8,1.1,2.9
			c0,1.2-0.4,2.1-1.1,2.9c-0.7,0.8-1.7,1.2-2.8,1.2c-1.4,0-2.6-0.8-3.2-1.9v5.6c0,0.1-0.1,0.2-0.2,0.2h-0.6c-0.1,0-0.2-0.1-0.2-0.2
			V84.9c0-0.1,0.1-0.2,0.2-0.2H254.8z M255.9,86.5c-0.6,0.6-0.9,1.4-0.9,2.3c0,0.9,0.3,1.6,0.9,2.3c0.6,0.6,1.3,0.9,2.2,0.9
			s1.6-0.3,2.2-0.9c0.6-0.6,0.9-1.4,0.9-2.3c0-0.9-0.3-1.6-0.9-2.3s-1.3-0.9-2.2-0.9S256.4,85.8,255.9,86.5z" />
		</g>
		<g>
			<path class="st0" d="M59.5,58c0.4,0,0.7,0.2,0.7,0.7v3.1c1.7-2.8,4-4.2,6.9-4.2c3,0,5.2,1.5,6.6,4.6c2.2-3.1,4.9-4.6,8.1-4.6
			c4.9,0,7.8,3.7,7.8,10v11.6c0,0.4-0.2,0.7-0.6,0.7h-3.7c-0.4,0-0.7-0.2-0.7-0.7V68.5c0-3.7-1.5-6.2-4.4-6.2
			c-1.4,0-2.6,0.6-3.7,1.8c-1.1,1.2-1.6,2.6-1.6,4.1v10.9c0,0.4-0.2,0.7-0.7,0.7h-3.6c-0.4,0-0.7-0.2-0.7-0.7V68.5
			c0-3.7-1.5-6.2-4.4-6.2c-1.4,0-2.7,0.6-3.7,1.8c-1,1.2-1.6,2.6-1.6,4.1v10.9c0,0.4-0.2,0.7-0.7,0.7h-3.6c-0.4,0-0.7-0.2-0.7-0.7
			V58.6c0-0.4,0.2-0.7,0.7-0.7H59.5z" />
			<path class="st0" d="M103.8,57.6c4.2,0,7.1,1,8.6,3.1c1.6,2,2.1,4.3,2.1,7.6v10.9c0,0.5-0.2,0.7-0.7,0.7h-3.3
			c-0.5,0-0.7-0.2-0.7-0.7v-1.9c-2.1,2-5,3-8.6,3c-3.7,0.2-7.5-1.6-7.5-6.5c0-3.3,2.3-5,5.1-6c0.9-0.3,2-0.6,3.2-0.7
			c2.4-0.3,4.1-0.4,6.5-0.4h1.1v-0.2c0-3.1-2-4.6-6.1-4.6c-1.9,0-4.3,0.5-5.4,0.9l-0.9,0.3c-0.4,0.1-0.7,0-0.9-0.4l-0.9-2.4
			c-0.2-0.5-0.1-0.8,0.3-1C97.9,58.1,100.7,57.6,103.8,57.6z M109.7,69.6h-0.6c-6.7,0-10.2,1-10.2,4c0,2.2,1.5,3.4,4.5,3.4
			c1.7,0,3.1-0.4,4.4-1.3c1.3-0.9,1.9-1.8,1.9-2.8V69.6z" />
			<path class="st0" d="M136.1,77.4c0.2,0.3,0.2,0.7-0.2,0.9c-1.9,1.3-4.1,1.9-6.5,1.9c-3.1,0-5.8-1.1-7.9-3.3
			c-2.1-2.2-3.2-4.9-3.2-8c0-3.1,1.1-5.8,3.2-8c2.1-2.2,4.8-3.3,7.9-3.3c2.3,0,4.4,0.7,6.4,2c0.4,0.3,0.5,0.6,0.2,1l-2,2.7
			c-0.2,0.3-0.5,0.4-0.9,0.1c-1.1-0.7-2.4-1.1-3.7-1.1c-1.8,0-3.3,0.7-4.5,1.9c-1.2,1.3-1.8,2.8-1.8,4.7c0,1.9,0.6,3.4,1.8,4.7
			c1.2,1.3,2.7,1.9,4.5,1.9c1.4,0,2.6-0.3,3.8-1.1c0.3-0.2,0.7-0.1,0.9,0.2L136.1,77.4z" />
			<path class="st0" d="M149.6,57.6c4.2,0,7.1,1,8.6,3.1c1.6,2,2.1,4.3,2.1,7.6v10.9c0,0.5-0.2,0.7-0.7,0.7h-3.3
			c-0.5,0-0.7-0.2-0.7-0.7v-1.9c-2.1,2-5,3-8.6,3c-3.7,0.2-7.5-1.6-7.5-6.5c0-3.3,2.3-5,5.1-6c0.9-0.3,2-0.6,3.2-0.7
			c2.4-0.3,4.1-0.4,6.5-0.4h1.1v-0.2c0-3.1-2-4.6-6.1-4.6c-1.9,0-4.3,0.5-5.4,0.9l-0.9,0.3c-0.4,0.1-0.7,0-0.9-0.4l-0.9-2.4
			c-0.2-0.5-0.1-0.8,0.3-1C143.6,58.1,146.4,57.6,149.6,57.6z M155.4,69.6h-0.6c-6.7,0-10.2,1-10.2,4c0,2.2,1.5,3.4,4.5,3.4
			c1.7,0,3.1-0.4,4.4-1.3c1.3-0.9,1.9-1.8,1.9-2.8V69.6z" />
			<path class="st0" d="M170.2,58c0.4,0,0.7,0.2,0.7,0.7v3.4h0c0.9-2.4,3.2-4.5,5.9-4.5c1.3,0,2.4,0.2,3.1,0.7
			c0.3,0.2,0.4,0.5,0.2,0.9l-1,3.4c-0.1,0.4-0.4,0.5-0.9,0.3c-0.6-0.2-1.3-0.3-2-0.3c-1.5,0-2.8,0.7-3.8,2.1c-1,1.4-1.6,3.1-1.6,5.1
			v9.6c0,0.4-0.2,0.7-0.7,0.7h-3.6c-0.4,0-0.7-0.2-0.7-0.7V58.6c0-0.4,0.2-0.7,0.7-0.7H170.2z" />
			<path class="st0" d="M197.4,74.6c0.4-0.2,0.7-0.1,0.9,0.2l1.7,2.3c0.2,0.3,0.1,0.7-0.2,0.9c-2.4,1.5-5.1,2.2-8,2.2
			c-3.1,0-5.8-1.1-7.9-3.3c-2.2-2.2-3.3-4.9-3.3-8c0-3.1,1-5.8,3-8c2-2.2,4.5-3.4,7.7-3.4c3.3,0,5.9,1.2,7.8,3.5
			c2,2.3,2.9,5.1,2.9,8.5c0,0.5-0.3,0.7-0.8,0.7h-15.9c0.2,1.6,1,3,2.2,4.1c1.3,1.1,2.7,1.6,4.5,1.6C193.9,76,195.7,75.6,197.4,74.6
			z M197.2,67.2c-0.5-3.5-2.6-5.8-6-5.8c-3.3,0-5.5,2.4-5.9,5.8H197.2z" />
			<path class="st0" d="M221.6,79.8c-0.4,0-0.7-0.2-0.7-0.7V68.5c0-3.8-1.7-6.2-5.1-6.2c-1.5,0-2.8,0.6-3.9,1.8
			c-1.1,1.2-1.6,2.6-1.6,4.1v10.9c0,0.4-0.2,0.7-0.7,0.7h-3.6c-0.4,0-0.7-0.2-0.7-0.7V58.6c0-0.4,0.2-0.7,0.7-0.7h3.6
			c0.4,0,0.7,0.2,0.7,0.7v3.2c1.4-2.3,3.9-4.3,7.2-4.3c5.4,0,8.3,3.7,8.3,10v11.6c0,0.4-0.2,0.7-0.7,0.7H221.6z" />
			<path class="st0"
				d="M233.6,46.7c1.7,0,3,1.3,3,3c0,1.6-1.3,2.9-3,2.9c-1.6,0-2.9-1.3-2.9-2.9C230.7,48,232,46.7,233.6,46.7z
			 M231.8,79.8c-0.4,0-0.7-0.2-0.7-0.7V58.6c0-0.4,0.2-0.7,0.7-0.7h3.6c0.4,0,0.7,0.2,0.7,0.7v20.5c0,0.4-0.2,0.7-0.7,0.7H231.8z" />
			<path class="st0" d="M251.2,57.6c4.2,0,7.1,1,8.6,3.1c1.6,2,2.1,4.3,2.1,7.6v10.9c0,0.5-0.2,0.7-0.7,0.7h-3.3
			c-0.5,0-0.7-0.2-0.7-0.7v-1.9c-2.1,2-5,3-8.6,3c-3.7,0.2-7.5-1.6-7.5-6.5c0-3.3,2.3-5,5.1-6c0.9-0.3,2-0.6,3.2-0.7
			c2.4-0.3,4.1-0.4,6.5-0.4h1.1v-0.2c0-3.1-2-4.6-6.1-4.6c-1.9,0-4.3,0.5-5.4,0.9l-0.9,0.3c-0.4,0.1-0.7,0-0.9-0.4l-0.9-2.4
			c-0.2-0.5-0.1-0.8,0.3-1C245.2,58.1,248,57.6,251.2,57.6z M257,69.6h-0.6c-6.7,0-10.2,1-10.2,4c0,2.2,1.5,3.4,4.5,3.4
			c1.7,0,3.1-0.4,4.4-1.3c1.3-0.9,1.9-1.8,1.9-2.8V69.6z" />
		</g>
		<g>
			<g>
				<circle class="st0" cx="54" cy="31.7" r="6.8" />
			</g>
			<g>
				<circle class="st0" cx="24.8" cy="45.8" r="6.8" />
			</g>
			<g>
				<circle class="st0" cx="30.4" cy="20.1" r="6.8" />
			</g>
			<g>
				<path class="st0"
					d="M47,43.3c0,0-4.5-3.9-3.7-5.2c2.9-4.9,8.4-8.3,9.2-8.8l2.8,4.7C53.3,35.3,47.7,39.4,47,43.3z" />
			</g>
			<g>
				<path class="st0" d="M42.3,56.1c-10.6,0-19-8-19.4-8.4l3.8-3.9l-1.9,1.9l1.9-2c0.1,0.1,9.8,9.3,20,6.2c0,0-0.3,5.7-1.1,5.8
				C44.5,56,43.4,56.1,42.3,56.1z" />
			</g>
			<g>
				<path class="st0" d="M25.7,63.4c-8.8,0-17-6.5-18-16.6c-0.1-0.8-0.1-1.5,0-2.3c0.4-6,3.3-11,7.9-14.1c-1.2-2-2.1-4.1-2.5-6.5
				c-0.3-1.5-0.3-3-0.2-4.5c0.7-7,5-12.6,11.2-15.2c8.2-3.4,17.9-0.1,22.3,7.6c0.6,1,1,2,1.4,3c5.4-1.7,11.4-0.8,16.4,2.8
				c0.7,0.5,1.3,1,1.9,1.6c9,9.5,5.7,23.8-5,28.9c-1.8,0.9-3.8,1.5-5.8,1.7c-0.9,0.1-2.2-3.2-2.7-4.7c-0.1-0.3,0.1-0.7,0.5-0.7
				c4.1,0.1,8.1-1.8,10.6-5.5c2.6-3.7,2.9-8.6,1-12.6c-1.8-3.7-5.2-6.3-9.5-7c-2.3-0.4-4.7,0-6.9,0.9c-0.3,0.1-0.6,0.3-0.9,0.5
				l-2.8,1.5c-0.3,0.2-0.6,0-0.7-0.3L43.3,19c-0.3-1.9-1-3.7-2.2-5.3c-3.4-4.9-10-6.7-15.5-4.2c-3.2,1.4-5.6,4.1-6.7,7.3
				c-1.1,3.2-0.9,6.6,0.6,9.6c0.5,1.1,1.2,2.2,2.1,3.1l2.1,2.3c0.2,0.2,0.1,0.6-0.1,0.7C22.5,33,20.3,34,20.2,34
				c-3,1.5-5.3,4-6.4,7.2c-1.1,3.2-0.9,6.6,0.6,9.6c2.6,5.4,9.4,8.8,15.9,6.3c0.4-0.2,0.8,0.2,0.7,0.6c-0.4,1.8-1.3,5.2-1.9,5.3
				C27.9,63.3,26.8,63.4,25.7,63.4z" />
			</g>
			<path class="st0" d="M43.2,50.2c0.3,7.6-1.8,18.8-13.6,29.4c-0.2,0.2-0.1,0.6,0.2,0.6h6.5c0.3,0,0.7-0.1,0.9-0.4
			c9.9-10.8,11.8-22,11.5-29.8c-0.5-12.1-6.9-24.3-16.2-31.2l-3.2,4.4C37.3,29,42.8,39.6,43.2,50.2z" />
		</g>
	</g>
</svg>