<svg id="Capa_1" data-name="Capa 1" width="180" height="180" xmlns="http://www.w3.org/2000/svg" viewBox="0 0 566.93 566.93">
  <defs>
    <style>
      .cls-1,
      .cls-2 {
        fill: #fff;
      }

      .cls-2 {
        fill-rule: evenodd;
      }
    </style>
  </defs>
  <title>Sin título-1</title>
  <path class="cls-1"
    d="M172.76,279a17.24,17.24,0,0,1,6.6,1.23,15.32,15.32,0,0,1,8.59,8.61,18.46,18.46,0,0,1,0,13.25,15.32,15.32,0,0,1-8.59,8.61,18.35,18.35,0,0,1-13.21,0,15.32,15.32,0,0,1-8.59-8.61,18.46,18.46,0,0,1,0-13.25,15.32,15.32,0,0,1,8.59-8.61,17.29,17.29,0,0,1,6.61-1.23m0,25.3a8.1,8.1,0,0,0,3.06-.6,7.92,7.92,0,0,0,2.62-1.73,8.24,8.24,0,0,0,1.8-2.78,10.66,10.66,0,0,0,0-7.44,8.14,8.14,0,0,0-1.8-2.78,7.77,7.77,0,0,0-2.62-1.73,8.21,8.21,0,0,0-6.16,0,7.85,7.85,0,0,0-2.59,1.73,8.14,8.14,0,0,0-1.8,2.78,10.81,10.81,0,0,0,0,7.44,8.24,8.24,0,0,0,1.8,2.78,7.94,7.94,0,0,0,5.69,2.33" />
  <path class="cls-1"
    d="M193.86,280.05h7.77v4.29h.5a8.16,8.16,0,0,1,1.52-2.08,11.31,11.31,0,0,1,2.11-1.65,12.27,12.27,0,0,1,2.53-1.13A8.8,8.8,0,0,1,211,279a10,10,0,0,1,2.81.35,7.48,7.48,0,0,1,2,.91l-2.21,7.39a7.26,7.26,0,0,0-1.68-.6,9.52,9.52,0,0,0-2.24-.22,7.07,7.07,0,0,0-3.09.66,6.75,6.75,0,0,0-2.37,1.87,8.9,8.9,0,0,0-1.52,2.82,11.1,11.1,0,0,0-.54,3.52V311h-8.27Z" />
  <path class="cls-1"
    d="M219.57,280.05h7.77v4h.51a10.86,10.86,0,0,1,3.94-3.66,11.27,11.27,0,0,1,5.53-1.39,10.31,10.31,0,0,1,5.94,1.64,9.2,9.2,0,0,1,3.41,4,12.7,12.7,0,0,1,4.11-4,11.81,11.81,0,0,1,6.44-1.68,12.18,12.18,0,0,1,4.93.92,9.26,9.26,0,0,1,3.45,2.55,11.4,11.4,0,0,1,2,3.95,17.34,17.34,0,0,1,.69,5V311h-8.27V293q0-6.3-5.18-6.3a5.76,5.76,0,0,0-2.91.72,6.61,6.61,0,0,0-2.12,2,9.74,9.74,0,0,0-1.32,2.93,13.49,13.49,0,0,0-.48,3.66v15h-8.27V293q0-6.3-5.44-6.3a5.31,5.31,0,0,0-2.78.72,6.5,6.5,0,0,0-2,2,9.68,9.68,0,0,0-1.26,2.93,14.34,14.34,0,0,0-.44,3.66v15h-8.28Z" />
  <path class="cls-1"
    d="M293.93,307.68h-.5a13.91,13.91,0,0,1-3.51,3,10,10,0,0,1-5.28,1.26,12.7,12.7,0,0,1-4.51-.79,11.73,11.73,0,0,1-3.7-2.17,9.78,9.78,0,0,1-2.46-3.35,10.26,10.26,0,0,1-.89-4.29,9.72,9.72,0,0,1,.95-4.32,10,10,0,0,1,2.65-3.31,12,12,0,0,1,4-2.11,16.42,16.42,0,0,1,5-.73,21.53,21.53,0,0,1,5,.48,24.62,24.62,0,0,1,3.22,1v-.94a5,5,0,0,0-2-4.07,7.4,7.4,0,0,0-4.86-1.61,9.09,9.09,0,0,0-7.27,3.6l-6-4.1Q278.77,279,287.3,279q7.2,0,11,3.38t3.79,10V311h-8.15Zm0-9.27a17.14,17.14,0,0,0-3-1.1,12.88,12.88,0,0,0-3.38-.42,7.16,7.16,0,0,0-4.58,1.3,3.94,3.94,0,0,0-1.61,3.18,3.55,3.55,0,0,0,1.55,3,5.85,5.85,0,0,0,3.57,1.14,7.59,7.59,0,0,0,3-.6,7.74,7.74,0,0,0,2.37-1.58,7.08,7.08,0,0,0,2.05-4.95" />
  <path class="cls-1"
    d="M337.71,303.08a17.25,17.25,0,0,1-5.65,6.4A15.68,15.68,0,0,1,323,312a17.24,17.24,0,0,1-6.6-1.23,15.25,15.25,0,0,1-5.18-3.44,15.92,15.92,0,0,1-3.41-5.2,17.22,17.22,0,0,1-1.23-6.59,17.46,17.46,0,0,1,1.23-6.63,15.32,15.32,0,0,1,8.59-8.61A17.24,17.24,0,0,1,323,279a15.88,15.88,0,0,1,9,2.46,14.62,14.62,0,0,1,5.37,6.38L329.82,291a8.25,8.25,0,0,0-2.75-3.25,7.54,7.54,0,0,0-4.2-1.1,7.71,7.71,0,0,0-3.1.63,8.07,8.07,0,0,0-2.56,1.76,8.42,8.42,0,0,0-1.74,2.78,10.95,10.95,0,0,0,0,7.32,8.38,8.38,0,0,0,1.74,2.77,7.94,7.94,0,0,0,2.56,1.77,7.71,7.71,0,0,0,3.1.63,7.9,7.9,0,0,0,4.39-1.17,8.11,8.11,0,0,0,2.87-3.37Z" />
  <path class="cls-1"
    d="M361.53,307.68H361a13.91,13.91,0,0,1-3.51,3,10,10,0,0,1-5.27,1.26,12.71,12.71,0,0,1-4.52-.79A11.73,11.73,0,0,1,344,309a9.78,9.78,0,0,1-2.46-3.35,10.26,10.26,0,0,1-.89-4.29,9.72,9.72,0,0,1,.95-4.32,9.86,9.86,0,0,1,2.66-3.31,11.89,11.89,0,0,1,4-2.11,16.42,16.42,0,0,1,5-.73,21.53,21.53,0,0,1,5,.48,24.62,24.62,0,0,1,3.22,1v-.94a5,5,0,0,0-2-4.07,7.4,7.4,0,0,0-4.86-1.61,9.09,9.09,0,0,0-7.27,3.6l-6-4.1Q346.38,279,354.9,279q7.2,0,11,3.38t3.79,10V311h-8.15Zm0-9.27a17.14,17.14,0,0,0-3-1.1,12.88,12.88,0,0,0-3.38-.42,7.16,7.16,0,0,0-4.58,1.3,3.94,3.94,0,0,0-1.61,3.18,3.58,3.58,0,0,0,1.55,3,5.85,5.85,0,0,0,3.57,1.14,7.61,7.61,0,0,0,5.4-2.18,7,7,0,0,0,2-4.95" />
  <path class="cls-1"
    d="M376.25,280.05H384v4.29h.51a7.93,7.93,0,0,1,1.52-2.08,11,11,0,0,1,2.11-1.65,11.81,11.81,0,0,1,2.53-1.13,8.74,8.74,0,0,1,2.68-.44,10,10,0,0,1,2.82.35,7.41,7.41,0,0,1,2,.91L396,287.69a7,7,0,0,0-1.67-.6,9.58,9.58,0,0,0-2.24-.22,7.15,7.15,0,0,0-3.1.66,6.75,6.75,0,0,0-2.37,1.87,9.1,9.1,0,0,0-1.52,2.82,11.39,11.39,0,0,0-.53,3.52V311h-8.28Z" />
  <path class="cls-1"
    d="M429.39,303.52a17.42,17.42,0,0,1-5.79,6.12,16.12,16.12,0,0,1-8.87,2.33,17.08,17.08,0,0,1-6.54-1.23,15.65,15.65,0,0,1-8.66-8.64,17.22,17.22,0,0,1-1.23-6.59,16.9,16.9,0,0,1,1.2-6.34,16,16,0,0,1,8.44-8.8,15.41,15.41,0,0,1,6.47-1.33,16.91,16.91,0,0,1,6.64,1.23,13.64,13.64,0,0,1,4.86,3.41,14.57,14.57,0,0,1,3,5.14,19.94,19.94,0,0,1,1,6.44V296a4.51,4.51,0,0,0-.06.7,3,3,0,0,0-.07.69H406.45a8.88,8.88,0,0,0,1,3.25,8,8,0,0,0,2,2.27,7.52,7.52,0,0,0,2.56,1.32,9.76,9.76,0,0,0,2.84.41,8.08,8.08,0,0,0,4.71-1.29,9.44,9.44,0,0,0,2.94-3.25Zm-7.52-12a5.54,5.54,0,0,0-.54-1.83,6.57,6.57,0,0,0-1.39-1.89,7.31,7.31,0,0,0-2.27-1.45,8.41,8.41,0,0,0-3.26-.57,7.56,7.56,0,0,0-4.67,1.52,8,8,0,0,0-2.85,4.22Z" />
  <path class="cls-1"
    d="M443,284.09h.5a10.46,10.46,0,0,1,3.92-3.69A11.51,11.51,0,0,1,453,279a12.92,12.92,0,0,1,5.12.95,9.29,9.29,0,0,1,3.63,2.68,11.82,11.82,0,0,1,2.15,4.16,18.61,18.61,0,0,1,.73,5.4V311h-8.28V293.24a7.14,7.14,0,0,0-1.48-5,5.6,5.6,0,0,0-4.33-1.6,6.05,6.05,0,0,0-3,.72,7.12,7.12,0,0,0-2.21,2,8.68,8.68,0,0,0-1.39,2.9,12.81,12.81,0,0,0-.48,3.56V311H435.2V280.05H443Z" />
  <path class="cls-1"
    d="M490.23,307.68h-.51a13.91,13.91,0,0,1-3.51,3,9.91,9.91,0,0,1-5.27,1.26,12.75,12.75,0,0,1-4.52-.79,11.68,11.68,0,0,1-3.69-2.17,9.68,9.68,0,0,1-2.47-3.35,10.26,10.26,0,0,1-.88-4.29,9.58,9.58,0,0,1,.95-4.32,9.83,9.83,0,0,1,2.65-3.31,11.89,11.89,0,0,1,4-2.11,16.46,16.46,0,0,1,5-.73,21.47,21.47,0,0,1,5,.48,24.83,24.83,0,0,1,3.23,1v-.94a5.06,5.06,0,0,0-2-4.07,7.44,7.44,0,0,0-4.87-1.61,9.09,9.09,0,0,0-7.26,3.6l-6-4.1q4.92-6.19,13.45-6.19,7.2,0,11,3.38t3.79,10V311h-8.15Zm0-9.27a16.94,16.94,0,0,0-3-1.1,12.82,12.82,0,0,0-3.38-.42,7.18,7.18,0,0,0-4.58,1.3,3.94,3.94,0,0,0-1.61,3.18,3.58,3.58,0,0,0,1.55,3,5.85,5.85,0,0,0,3.57,1.14,7.61,7.61,0,0,0,5.4-2.18,7,7,0,0,0,2.06-4.95" />
  <path class="cls-2"
    d="M145,314.66a32,32,0,0,1-19.59,12.25c-1.85-8.09-9.78-9.5-12.93-7a21.31,21.31,0,0,1-6.08,3,38,38,0,0,0-4.17,3.07c-.95.72-5.41,3.7-9.34-2.58-.85-1.33-3.36-3.27-4.54-5.4s-1.17-4.69-2-5.53C85,311,80.13,307.87,84,303.55c2.66-3.15,3.83-4.4,4.54-5.89s3.55-5.61,3.8-6.76c.56-2.53-1.06-5.19,2.83-9s5.89-5.5,6.87-6.27l2.7-2.09s-.75-5.47,2.21-7.24c1.57-1.08,5.9,1,5.9,1s2.59-.09,5.64-3.19c.37-1.54.65-5.31,2.13-5.83,2.42-.84,6.56,1.58,8.88,5.89.12.22,9.44,2.79,15.44,11.09,1.23-1,9.15-7.39,12.47-10.29a3.41,3.41,0,0,0,.12-4.92,50.76,50.76,0,0,0-38.18-16.83c-31.21,0-51.8,25.65-51.8,51.83a51.63,51.63,0,0,0,51.8,51.72c21.52,0,33.63-11.93,38.3-16.46a3.34,3.34,0,0,0-.24-4.66c-2.11-2.11-11.64-10.3-12.47-11" />
</svg>