<svg id="Capa_1" data-name="Capa 1" width="150" height="100" xmlns="http://www.w3.org/2000/svg" xmlns:xlink="http://www.w3.org/1999/xlink"
  viewBox="0 0 566.93 376.93">
  <defs>
    <style>
      .cls-1 {
        fill: #fff;
      }

      .cls-2 {
        fill: url(#Degradado_sin_nombre_18);
      }

      .cls-3 {
        fill: #39a7df;
      }

      .cls-4 {
        fill: #8fbf2b;
      }
    </style>
    <linearGradient id="Degradado_sin_nombre_18" x1="112.42" y1="337.82" x2="112.42" y2="59"
      gradientUnits="userSpaceOnUse">
      <stop offset="0" stop-color="#0c2c41" />
      <stop offset="0.58" stop-color="#6cb22d" />
      <stop offset="1" stop-color="#39a7df" />
    </linearGradient>
  </defs>
  <title>logo</title>
  <circle class="cls-1" cx="419.02" cy="131.5" r="8.5" />
  <path class="cls-1"
    d="M416.86,152.66h4.32a4.56,4.56,0,0,1,4.55,4.56V262.59a4.56,4.56,0,0,1-4.55,4.56h-4.32a4.56,4.56,0,0,1-4.56-4.56V157.22A4.56,4.56,0,0,1,416.86,152.66Z" />
  <path class="cls-1"
    d="M286.8,116.63a5.81,5.81,0,0,1,5.81-5.8h45.71c28.84,0,41.84,17.17,41.84,36.55,0,14.53-7.49,27.74-24.22,33.24,20.69,4.63,33,20.48,33,42.49,0,25.32-16.73,44-52.62,44H292.61a5.81,5.81,0,0,1-5.81-5.8Zm48.66,59.81c20.48,0,31.48-11.45,31.48-27.52,0-15.41-9.9-25.76-30.82-25.76H300.46V254.82h35c26.64,0,40.07-12.11,40.07-32.59,0-20.91-13.43-34.78-40.07-34.78H317.32a5.44,5.44,0,0,1-5.43-5.44v-2.83a2.56,2.56,0,0,1,2.52-2.56Z" />
  <path class="cls-1"
    d="M448,209.91c0-39,28.18-59.45,56.8-59.45,21.58,0,39.19,11.89,45.8,26.64h.66V156.72a4.06,4.06,0,0,1,4-4.06h5.32a4.06,4.06,0,0,1,4.06,4.06V263.09a4.06,4.06,0,0,1-4.06,4.06h-5.32a4.06,4.06,0,0,1-4-4.06V242.71h-.66c-6.61,14.75-24.22,26.64-45.8,26.64C476.15,269.35,448,248.88,448,209.91Zm57.16,45.69c21.78,0,43.77-15.16,43.77-45.69s-22-45.7-43.77-45.7-43.77,14.95-43.77,45.7S483.35,255.6,505.13,255.6Z" />
  <path class="cls-2"
    d="M102.59,374c-25.85,0-51.21-7.94-71.81-24.28-10.32-8.18-26.58-27-26.58-27a8,8,0,0,1-.74-11.51l101.41-109.9,11.71,10.81L20.84,315.89s5.36,9,19.72,21.26c20.92,17.85,49,23.67,76.26,20A102.55,102.55,0,0,0,185,317.25c16.79-22.1,25-50.29,22.53-77.32-2.55-27.78-15.79-52.08-37.3-68.42a.86.86,0,0,1-.18-.14l-63.15-50.86L14.57,215.37A8,8,0,0,1,.9,209.8L1.22,11A8,8,0,0,1,9.18,3h0L92.05,3A90.88,90.88,0,0,1,178.27,122.4l-15.12-5A74.93,74.93,0,0,0,92.05,19l-74.92,0-.27,171.26,83.72-86a8,8,0,0,1,10.71-.64L180,158.9c25.06,19.07,40.49,47.33,43.44,79.58a126.92,126.92,0,0,1-25.71,88.41,118.36,118.36,0,0,1-78.74,46A120.92,120.92,0,0,1,102.59,374Z" />
  <circle class="cls-3" cx="172.56" cy="112.74" r="12.99" />
  <circle class="cls-4" cx="107.05" cy="209.17" r="12.99" />
</svg>